<svg width="102" height="83" viewBox="0 0 102 83" fill="none" xmlns="http://www.w3.org/2000/svg">
<rect x="15" y="32" width="87" height="44" rx="22" fill="#8D96F6"/>
<mask id="path-2-inside-1_40000001_51916" fill="white">
<path d="M65 0C73.8363 0.000253638 81 7.1636 81 16V42C81 50.8364 73.8363 57.9997 65 58H61.8027C60.7024 60.3858 60.4811 63.0965 61.2031 65.6445C61.404 66.3544 60.6375 66.9472 60.001 66.5742L58.2656 65.5557C55.1385 63.7211 52.5446 61.1163 50.7256 58L16 58C7.16344 58 0 50.8366 0 42L0 16C9.02045e-07 7.16344 7.16344 0 16 0L65 0Z"/>
</mask>
<path d="M65 0C73.8363 0.000253638 81 7.1636 81 16V42C81 50.8364 73.8363 57.9997 65 58H61.8027C60.7024 60.3858 60.4811 63.0965 61.2031 65.6445C61.404 66.3544 60.6375 66.9472 60.001 66.5742L58.2656 65.5557C55.1385 63.7211 52.5446 61.1163 50.7256 58L16 58C7.16344 58 0 50.8366 0 42L0 16C9.02045e-07 7.16344 7.16344 0 16 0L65 0Z" fill="white"/>
<path d="M65 0L65.0001 -2H65V0ZM81 42H83H81ZM65 58V60H65.0001L65 58ZM61.8027 58V56H60.5227L59.9866 57.1624L61.8027 58ZM61.2031 65.6445L63.1276 65.1L63.1274 65.0993L61.2031 65.6445ZM60.001 66.5742L58.9886 68.2991L58.9899 68.2998L60.001 66.5742ZM58.2656 65.5557L59.278 63.8308L59.2776 63.8306L58.2656 65.5557ZM50.7256 58L52.4529 56.9918L51.874 56H50.7256V58ZM0 16H-2H0ZM65 0L64.9999 2C72.7318 2.00022 79 8.26823 79 16H81H83C83 6.05897 74.9409 -1.99971 65.0001 -2L65 0ZM81 16H79V42H81H83V16H81ZM81 42H79C79 49.7318 72.7318 55.9998 64.9999 56L65 58L65.0001 60C74.9409 59.9997 83 51.941 83 42H81ZM65 58V56H61.8027V58V60H65V58ZM61.8027 58L59.9866 57.1624C58.6877 59.9787 58.4259 63.1797 59.2789 66.1898L61.2031 65.6445L63.1274 65.0993C62.5363 63.0134 62.7171 60.793 63.6189 58.8376L61.8027 58ZM61.2031 65.6445L59.2787 66.1891C58.9891 65.1655 60.0942 64.3108 61.0121 64.8486L60.001 66.5742L58.9899 68.2998C61.1807 69.5835 63.8189 67.5433 63.1276 65.1L61.2031 65.6445ZM60.001 66.5742L61.0134 64.8494L59.278 63.8308L58.2656 65.5557L57.2532 67.2805L58.9886 68.2991L60.001 66.5742ZM58.2656 65.5557L59.2776 63.8306C56.447 62.17 54.0992 59.8123 52.4529 56.9918L50.7256 58L48.9983 59.0082C50.99 62.4204 53.83 65.2723 57.2536 67.2807L58.2656 65.5557ZM50.7256 58V56L16 56V58V60L50.7256 60V58ZM16 58V56C8.26801 56 2 49.732 2 42H0H-2C-2 51.9411 6.05887 60 16 60V58ZM0 42H2L2 16H0H-2L-2 42H0ZM0 16H2C2 8.26801 8.26801 2 16 2V0V-2C6.05888 -2 -2 6.05888 -2 16H0ZM16 0V2L65 2V0V-2L16 -2V0Z" fill="#E9E9E9" mask="url(#path-2-inside-1_40000001_51916)"/>
<rect width="43.9248" height="43.9248" transform="translate(19.1572 8.78613)" fill="white"/>
<path d="M48.2568 15.2764C53.9218 15.2764 58.4367 19.7709 58.6045 25.4697V25.8066C58.6045 28.8377 57.4286 31.493 55.4512 33.3057L55.127 33.6025V33.7402C55.0824 33.7773 55.0343 33.8163 54.9844 33.8584C54.7003 34.0979 54.3138 34.4309 53.8525 34.832C52.9288 35.6352 51.6904 36.7237 50.3408 37.9131C47.6439 40.29 44.501 43.0695 42.4922 44.8047C41.765 45.4105 40.6569 45.4105 39.9297 44.8047H39.9287C37.9171 43.0673 34.7248 40.2848 32.0088 37.9111C30.6479 36.7218 29.4076 35.6351 28.4961 34.835C28.0402 34.4348 27.6669 34.1066 27.4023 33.873C27.3633 33.8386 27.3278 33.8065 27.2949 33.7773V33.6279L27.002 33.335C24.9828 31.3157 23.8174 28.6381 23.8174 25.8066V25.4707C23.984 19.9747 28.6626 15.459 34.165 15.459C35.0602 15.4591 36.1791 15.7648 37.2598 16.3467C38.3071 16.9107 39.2448 17.6967 39.8691 18.6006C40.4322 19.8592 42.2298 19.8411 42.7578 18.5469C43.288 17.5905 44.2096 16.7692 45.2666 16.1797C46.3466 15.5774 47.4608 15.2764 48.2568 15.2764Z" fill="#DEE0FC" stroke="#737EF4" stroke-width="2"/>
</svg>
