<svg width="97" height="91" viewBox="0 0 97 91" fill="none" xmlns="http://www.w3.org/2000/svg">
<rect x="10" y="43" width="87" height="44" rx="22" fill="#8D96F6"/>
<mask id="path-2-inside-1_40000001_51935" fill="white">
<path d="M65 8C73.8363 8.00025 81 15.1636 81 24V50C81 58.8364 73.8363 65.9997 65 66H30.1816C29.0813 68.3858 28.86 71.0965 29.582 73.6445C29.783 74.3545 29.0164 74.9472 28.3799 74.5742L26.6445 73.5557C23.5174 71.7211 20.9235 69.1163 19.1045 66H16C7.16344 66 0 58.8366 0 50L0 24C9.02045e-07 15.1634 7.16344 8 16 8L65 8Z"/>
</mask>
<path d="M65 8C73.8363 8.00025 81 15.1636 81 24V50C81 58.8364 73.8363 65.9997 65 66H30.1816C29.0813 68.3858 28.86 71.0965 29.582 73.6445C29.783 74.3545 29.0164 74.9472 28.3799 74.5742L26.6445 73.5557C23.5174 71.7211 20.9235 69.1163 19.1045 66H16C7.16344 66 0 58.8366 0 50L0 24C9.02045e-07 15.1634 7.16344 8 16 8L65 8Z" fill="white"/>
<path d="M65 8L65.0001 6H65V8ZM81 50H83H81ZM65 66V68H65.0001L65 66ZM30.1816 66V64H28.9016L28.3655 65.1624L30.1816 66ZM29.582 73.6445L31.5064 73.0999L31.5063 73.0993L29.582 73.6445ZM28.3799 74.5742L27.3675 76.2991L27.3687 76.2998L28.3799 74.5742ZM26.6445 73.5557L27.6569 71.8308L27.6565 71.8306L26.6445 73.5557ZM19.1045 66L20.8318 64.9918L20.2529 64H19.1045V66ZM0 24H-2H0ZM65 8L64.9999 10C72.7318 10.0002 79 16.2682 79 24H81H83C83 14.059 74.9409 6.00029 65.0001 6L65 8ZM81 24H79V50H81H83V24H81ZM81 50H79C79 57.7318 72.7318 63.9998 64.9999 64L65 66L65.0001 68C74.9409 67.9997 83 59.941 83 50H81ZM65 66V64H30.1816V66V68H65V66ZM30.1816 66L28.3655 65.1624C27.0666 67.9787 26.8048 71.1797 27.6578 74.1898L29.582 73.6445L31.5063 73.0993C30.9152 71.0134 31.0959 68.793 31.9978 66.8376L30.1816 66ZM29.582 73.6445L27.6576 74.1892C27.3679 73.1655 28.4733 72.3109 29.391 72.8486L28.3799 74.5742L27.3687 76.2998C29.5595 77.5835 32.198 75.5434 31.5064 73.0999L29.582 73.6445ZM28.3799 74.5742L29.3923 72.8494L27.6569 71.8308L26.6445 73.5557L25.6321 75.2805L27.3675 76.2991L28.3799 74.5742ZM26.6445 73.5557L27.6565 71.8306C24.8259 70.17 22.4781 67.8123 20.8318 64.9918L19.1045 66L17.3772 67.0082C19.3689 70.4204 22.2089 73.2723 25.6325 75.2807L26.6445 73.5557ZM19.1045 66V64H16V66V68H19.1045V66ZM16 66V64C8.26801 64 2 57.732 2 50H0H-2C-2 59.9411 6.05887 68 16 68V66ZM0 50H2L2 24H0H-2L-2 50H0ZM0 24H2C2 16.268 8.26801 10 16 10V8V6C6.05888 6 -2 14.0589 -2 24H0ZM16 8V10L65 10V8V6L16 6V8Z" fill="#E9E9E9" mask="url(#path-2-inside-1_40000001_51935)"/>
<line x1="16" y1="35" x2="52" y2="35" stroke="#CCCCCC" stroke-width="2" stroke-linecap="round"/>
<line x1="16" y1="49" x2="52" y2="49" stroke="#CCCCCC" stroke-width="2" stroke-linecap="round"/>
<line x1="16" y1="42" x2="41" y2="42" stroke="#CCCCCC" stroke-width="2" stroke-linecap="round"/>
<line x1="47" y1="42" x2="52" y2="42" stroke="#CCCCCC" stroke-width="2" stroke-linecap="round"/>
<rect x="76.1172" y="8.31641" width="4" height="24.2082" transform="rotate(45 76.1172 8.31641)" fill="#F8F8F8"/>
<path d="M61.6667 25.3333H63.5667L76.6 12.3L74.7 10.4L61.6667 23.4333V25.3333ZM60.3333 28C59.9556 28 59.6389 27.8722 59.3833 27.6167C59.1278 27.3611 59 27.0444 59 26.6667V23.4333C59 23.0778 59.0667 22.7389 59.2 22.4167C59.3333 22.0944 59.5222 21.8111 59.7667 21.5667L76.6 4.76667C76.8667 4.52222 77.1611 4.33333 77.4833 4.2C77.8056 4.06667 78.1444 4 78.5 4C78.8556 4 79.2 4.06667 79.5333 4.2C79.8667 4.33333 80.1556 4.53333 80.4 4.8L82.2333 6.66667C82.5 6.91111 82.6944 7.2 82.8167 7.53333C82.9389 7.86667 83 8.2 83 8.53333C83 8.88889 82.9389 9.22778 82.8167 9.55C82.6944 9.87222 82.5 10.1667 82.2333 10.4333L65.4333 27.2333C65.1889 27.4778 64.9056 27.6667 64.5833 27.8C64.2611 27.9333 63.9222 28 63.5667 28H60.3333ZM75.6333 11.3667L74.7 10.4L76.6 12.3L75.6333 11.3667Z" fill="#737EF4"/>
</svg>
